<?xml version="1.0" standalone="no"?>
<!DOCTYPE svg PUBLIC "-//W3C//DTD SVG 20010904//EN"
 "http://www.w3.org/TR/2001/REC-SVG-20010904/DTD/svg10.dtd">
<svg version="1.0" xmlns="http://www.w3.org/2000/svg"
 width="192.000000pt" height="192.000000pt" viewBox="0 0 192.000000 192.000000"
 preserveAspectRatio="xMidYMid meet">
<metadata>
Created by potrace 1.11, written by Peter Selinger 2001-2013
</metadata>
<g transform="translate(0.000000,192.000000) scale(0.100000,-0.100000)"
fill="#000000" stroke="none">
<path d="M920 1520 c-221 -35 -431 -219 -501 -440 -29 -91 -35 -235 -15 -330
19 -90 81 -218 136 -280 l40 -45 90 94 89 93 -44 52 c-54 60 -129 207 -150
291 -16 62 -19 230 -6 300 7 39 7 39 14 -26 17 -157 126 -378 240 -487 28 -28
38 -32 54 -24 23 13 343 339 343 350 0 11 -92 90 -153 131 -98 67 -274 140
-340 142 -70 1 -73 16 -4 23 181 20 384 -40 525 -154 51 -41 66 -49 81 -41 22
12 161 160 161 171 0 32 -172 136 -270 163 -70 20 -218 28 -290 17z"/>
<path d="M1078 843 l-48 -48 118 -120 c65 -66 158 -158 206 -205 l87 -84 46
46 45 46 -203 206 -204 207 -47 -48z"/>
</g>
</svg>
