<?xml version="1.0" standalone="no"?>
<!DOCTYPE svg PUBLIC "-//W3C//DTD SVG 20010904//EN"
 "http://www.w3.org/TR/2001/REC-SVG-20010904/DTD/svg10.dtd">
<svg version="1.0" xmlns="http://www.w3.org/2000/svg"
 width="512.000000pt" height="512.000000pt" viewBox="0 0 512.000000 512.000000"
 preserveAspectRatio="xMidYMid meet">
<metadata>
Created by potrace 1.11, written by Peter Selinger 2001-2013
</metadata>
<g transform="translate(0.000000,512.000000) scale(0.100000,-0.100000)"
fill="#000000" stroke="none">
<path d="M2730 3882 c0 -188 1 -342 3 -342 1 0 99 98 217 217 118 119 202 208
185 198 -16 -9 -40 -27 -52 -38 l-22 -19 -165 162 -166 163 0 -341z"/>
<path d="M2392 4177 c-1 -16 -13 -43 -26 -60 -37 -48 -46 -80 -61 -210 -15
-129 -17 -135 -49 -146 -33 -13 -64 9 -213 150 -236 223 -190 163 87 -115
l265 -266 3 171 c3 172 -2 528 -6 476z"/>
<path d="M3393 3948 l118 -113 -391 -383 -390 -384 0 -174 0 -174 163 0 164 0
387 390 c213 215 391 390 395 390 5 0 58 -53 119 -118 l111 -119 -272 -271
-272 -272 353 0 352 0 0 -165 0 -165 -347 0 -348 0 267 -267 267 -268 -114
-120 -114 -120 -388 388 -388 387 -168 0 -167 0 0 -169 0 -169 391 -384 390
-383 -123 -117 -123 -117 -267 267 -268 267 0 -348 0 -347 -165 0 -165 0 0
352 0 353 -272 -272 -273 -272 -118 115 -119 116 24 25 c13 14 188 190 391
391 l367 366 0 163 0 163 -174 0 -174 0 -384 -389 -383 -388 -118 122 -117
122 267 266 268 267 -341 0 -341 0 -7 92 c-3 50 -7 119 -7 152 -1 34 -4 48 -6
31 -3 -16 -11 -37 -18 -45 -37 -43 -49 -86 -49 -170 0 -68 4 -93 21 -126 37
-70 104 -112 204 -129 40 -6 113 -58 147 -105 l23 -30 -44 -48 c-120 -130
-147 -180 -147 -267 0 -101 66 -198 167 -246 66 -32 105 -35 180 -13 18 5 40
-12 128 -100 78 -78 105 -111 100 -123 -24 -65 -14 -149 27 -213 12 -19 22
-39 23 -45 0 -16 95 -82 135 -94 46 -14 104 -14 150 -1 l34 10 461 -460 461
-460 444 0 445 0 673 673 672 672 0 444 0 444 -525 531 c-289 292 -531 537
-538 544 -154 159 -741 733 -758 742 -13 6 29 -40 94 -102z"/>
<path d="M1674 3908 l-19 -23 23 19 c21 18 27 26 19 26 -2 0 -12 -10 -23 -22z"/>
<path d="M1605 3819 c-4 -6 -9 -37 -12 -68 -10 -110 8 -135 341 -471 161 -162
305 -314 319 -336 51 -83 42 -166 -23 -199 -17 -9 -30 -18 -30 -20 0 -3 45 -5
100 -5 l100 0 0 168 0 168 -388 387 c-213 213 -391 387 -394 387 -4 0 -10 -5
-13 -11z"/>
<path d="M1365 3430 c38 -41 212 -218 385 -393 305 -308 317 -318 350 -315
l35 3 -45 24 c-29 15 -167 144 -385 360 -350 346 -462 452 -340 321z"/>
<path d="M1109 3343 l-24 -28 28 24 c25 23 32 31 24 31 -2 0 -14 -12 -28 -27z"/>
<path d="M1040 3234 c-6 -16 -11 -52 -11 -80 0 -71 33 -133 127 -235 86 -94
111 -138 94 -169 -8 -15 -8 -22 2 -25 8 -3 87 -4 176 -3 l162 3 -269 269 -270
270 -11 -30z"/>
</g>
</svg>
